<svg xmlns="http://www.w3.org/2000/svg" xmlns:xlink="http://www.w3.org/1999/xlink" width="50" zoomAndPan="magnify" viewBox="0 0 37.5 37.499999" height="50" preserveAspectRatio="xMidYMid meet" version="1.0"><defs><g/><clipPath id="94ba5f3499"><path d="M 18 4 L 37.007812 4 L 37.007812 33 L 18 33 Z M 18 4 " clip-rule="nonzero"/></clipPath></defs><g fill="#000000" fill-opacity="1"><g transform="translate(-0.181375, 27.397828)"><g><path d="M 20.054688 -21.292969 C 19.933594 -22.289062 19.539062 -23.917969 18.269531 -23.917969 C 17.304688 -23.917969 16.125 -22.4375 15.523438 -21.804688 C 14.042969 -20.265625 12.683594 -18.542969 11.386719 -16.792969 C 8.636719 -13.078125 6.128906 -9.058594 4.226562 -4.832031 C 5.132812 -7.488281 5.890625 -10.238281 6.914062 -12.835938 C 6.945312 -12.957031 8.9375 -17.667969 9.390625 -18.453125 C 9.089844 -17.96875 8.183594 -16.035156 7.761719 -15.160156 C 8.546875 -16.910156 9.390625 -18.664062 10.269531 -20.355469 C 10.175781 -20.171875 10.058594 -19.871094 10.085938 -19.871094 C 10.207031 -19.839844 10.84375 -21.078125 10.75 -21.109375 L 10.628906 -21.019531 C 10.8125 -21.292969 10.933594 -21.441406 10.78125 -21.863281 C 10.570312 -22.378906 9.996094 -22.980469 9.453125 -23.074219 C 8.636719 -23.195312 8.09375 -22.410156 7.761719 -21.773438 C 7.582031 -21.410156 7.246094 -21.199219 7.007812 -20.777344 C 6.613281 -20.144531 6.34375 -19.449219 6.070312 -18.753906 C 5.917969 -18.453125 4.289062 -14.617188 4.378906 -14.585938 L 4.46875 -14.707031 C 4.347656 -14.4375 4.289062 -14.132812 4.167969 -13.863281 C 4.136719 -13.890625 4.257812 -14.101562 4.199219 -14.132812 C 3.925781 -14.195312 3.050781 -11.445312 3.019531 -11.234375 C 2.898438 -10.601562 2.75 -10.027344 2.535156 -9.421875 C 2.386719 -9.03125 2.234375 -8.636719 2.144531 -8.214844 C 2.144531 -8.183594 2.023438 -7.550781 2.082031 -7.582031 L 2.082031 -7.429688 C 2.054688 -7.460938 2.054688 -7.519531 2.054688 -7.550781 C 1.964844 -7.519531 1.8125 -6.523438 1.78125 -6.433594 C 1.570312 -5.917969 1.328125 -5.4375 1.179688 -4.890625 C 0.753906 -3.414062 0.574219 -1.902344 0.363281 -0.394531 C 0.210938 0.574219 -0.332031 2.296875 0.273438 3.171875 C 0.695312 3.773438 2.144531 4.347656 2.71875 3.59375 C 2.960938 3.320312 2.898438 2.808594 2.960938 2.535156 C 3.140625 1.027344 3.535156 -0.210938 4.105469 -1.628906 C 5.285156 -4.53125 6.734375 -7.339844 8.367188 -10.027344 C 9.722656 -12.199219 10.992188 -14.464844 12.59375 -16.488281 C 13.589844 -17.757812 14.585938 -19.027344 15.675781 -20.203125 C 15.914062 -20.476562 16.972656 -21.773438 17.457031 -21.59375 C 18.058594 -21.382812 17.484375 -19.296875 17.394531 -18.875 C 17.0625 -17.363281 16.640625 -15.855469 16.125 -14.375 C 15.28125 -11.960938 14.496094 -9.484375 13.46875 -7.1875 C 12.804688 -5.707031 12.050781 -4.257812 11.265625 -2.867188 C 10.601562 -1.75 9.664062 0.179688 8.246094 0.542969 C 6.613281 0.9375 5.527344 -1.480469 4.984375 -2.65625 C 4.984375 -0.511719 6.25 1.722656 8.546875 2.113281 C 10.871094 2.507812 12.867188 0.0585938 14.042969 -1.601562 C 14.980469 -2.898438 15.824219 -4.347656 16.488281 -5.796875 C 16.640625 -6.160156 16.671875 -6.523438 16.761719 -6.855469 C 16.910156 -7.429688 17.335938 -7.972656 17.578125 -8.515625 C 18.242188 -10.027344 18.816406 -11.507812 19.269531 -13.078125 C 19.507812 -13.832031 19.722656 -14.585938 19.871094 -15.371094 C 19.933594 -15.675781 19.992188 -16.035156 20.023438 -16.339844 C 20.023438 -16.519531 19.902344 -16.792969 19.902344 -16.851562 C 19.871094 -17.578125 20.113281 -18.332031 20.144531 -19.085938 C 20.171875 -19.8125 20.144531 -20.566406 20.054688 -21.292969 Z M 3.683594 -10.539062 C 3.773438 -11.265625 4.136719 -12.050781 4.410156 -12.746094 C 4.742188 -13.652344 5.074219 -14.496094 5.527344 -15.371094 C 6.101562 -16.519531 6.644531 -17.699219 7.308594 -18.816406 C 7.246094 -18.664062 7.21875 -18.363281 7.128906 -18.179688 C 7.007812 -17.910156 6.824219 -17.636719 6.703125 -17.335938 C 6.402344 -16.671875 6.128906 -16.007812 5.796875 -15.339844 C 5.375 -14.464844 4.984375 -13.621094 4.621094 -12.746094 C 4.410156 -12.261719 4.257812 -11.777344 4.078125 -11.292969 C 3.988281 -10.992188 3.894531 -10.359375 3.714844 -10.148438 C 3.652344 -10.085938 3.683594 -10.539062 3.683594 -10.539062 Z M 13.199219 -4.890625 C 13.105469 -4.742188 13.015625 -4.589844 12.957031 -4.4375 L 12.804688 -4.136719 C 12.773438 -4.136719 12.773438 -4.105469 12.773438 -4.078125 C 12.199219 -3.019531 11.566406 -1.933594 10.902344 -0.964844 C 10.8125 -0.84375 8.910156 1.570312 8.636719 0.9375 C 8.605469 0.84375 9.242188 0.726562 9.269531 0.695312 C 9.695312 0.484375 10.058594 0.03125 10.359375 -0.332031 C 11.082031 -1.269531 11.71875 -2.324219 12.292969 -3.351562 C 12.773438 -4.199219 13.226562 -5.042969 13.621094 -5.890625 L 13.378906 -5.316406 C 13.5 -5.558594 13.589844 -5.796875 13.679688 -6.039062 L 13.863281 -6.460938 L 13.832031 -6.3125 C 13.890625 -6.460938 13.953125 -6.644531 14.042969 -6.796875 L 14.042969 -6.824219 C 14.195312 -7.128906 14.316406 -7.367188 14.34375 -7.367188 C 14.34375 -7.339844 13.316406 -5.105469 13.199219 -4.921875 Z M 15.402344 -8.125 C 15.25 -7.519531 15.039062 -6.914062 14.769531 -6.371094 C 14.527344 -5.917969 14.101562 -5.464844 13.953125 -4.984375 C 14.316406 -6.070312 14.949219 -7.066406 15.402344 -8.152344 Z M 4.136719 -9.875 C 3.894531 -9.484375 3.988281 -9.03125 3.867188 -8.636719 C 3.773438 -8.457031 3.441406 -8.09375 3.382812 -7.851562 C 3.382812 -8.035156 3.441406 -8.273438 3.472656 -8.425781 C 3.503906 -8.726562 3.652344 -8.847656 3.804688 -9.089844 C 3.925781 -9.269531 3.988281 -9.875 4.226562 -9.964844 Z M 10.933594 -0.875 C 11.355469 -1.511719 11.777344 -2.175781 12.171875 -2.898438 C 11.777344 -2.144531 11.386719 -1.480469 10.933594 -0.875 Z M 7.730469 -19.570312 C 7.851562 -19.507812 7.820312 -19.449219 7.671875 -19.296875 C 7.609375 -19.359375 7.609375 -19.449219 7.730469 -19.570312 Z M 7.007812 -13.378906 L 7.007812 -13.347656 L 6.523438 -12.199219 L 7.308594 -14.132812 C 7.21875 -13.863281 7.128906 -13.621094 7.007812 -13.378906 Z M 12.441406 -3.441406 C 12.441406 -3.382812 12.414062 -3.351562 12.382812 -3.292969 Z M 13.710938 -6.101562 C 13.710938 -6.070312 13.710938 -6.070312 13.679688 -6.039062 C 13.679688 -6.070312 13.710938 -6.070312 13.710938 -6.101562 Z M 13.710938 -6.101562 "/></g></g></g><g clip-path="url(#94ba5f3499)"><g fill="#000000" fill-opacity="1"><g transform="translate(18.178884, 27.397828)"><g><path d="M 18.933594 -20.507812 C 18.601562 -21.199219 17.847656 -21.863281 17.09375 -21.957031 C 16.339844 -22.078125 16.429688 -21.683594 16.21875 -21.199219 L 14.011719 -16.246094 L 12.773438 -13.347656 C 12.503906 -12.714844 12.019531 -10.933594 11.476562 -10.691406 C 11.082031 -10.539062 10.390625 -10.628906 9.964844 -10.601562 L 8.578125 -10.507812 C 7.761719 -10.417969 7.035156 -10.148438 6.222656 -10.148438 C 6.460938 -10.601562 6.644531 -11.082031 6.824219 -11.566406 C 7.097656 -12.199219 7.097656 -12.804688 7.398438 -13.4375 C 7.882812 -14.496094 8.273438 -15.582031 8.820312 -16.609375 C 9.121094 -17.214844 9.390625 -17.847656 9.664062 -18.453125 C 9.90625 -18.933594 9.964844 -19.480469 10.148438 -19.871094 C 10.359375 -20.234375 10.722656 -20.566406 10.871094 -20.929688 C 11.113281 -21.625 10.417969 -22.136719 9.816406 -22.347656 C 9.363281 -22.53125 8.757812 -22.621094 8.457031 -22.195312 C 8.515625 -22.226562 8.394531 -21.804688 8.394531 -21.863281 C 8.304688 -21.652344 8.183594 -21.441406 8.0625 -21.261719 C 6.765625 -18.785156 5.769531 -16.1875 4.710938 -13.589844 C 4.410156 -12.804688 4.078125 -12.019531 3.773438 -11.203125 C 3.625 -10.84375 3.472656 -10.449219 3.292969 -10.085938 C 3.050781 -9.605469 2.867188 -9.753906 2.324219 -9.605469 C 2.082031 -9.542969 1.601562 -9.453125 1.480469 -9.179688 C 1.207031 -8.578125 2.113281 -8.152344 2.535156 -8.035156 C 1.84375 -5.738281 0.996094 -3.503906 0.363281 -1.179688 C 0.210938 -0.605469 -0.0898438 0.0898438 0.03125 0.726562 C 0.121094 1.390625 1.117188 2.476562 1.871094 2.324219 C 2.597656 2.175781 2.628906 0.785156 2.808594 0.179688 C 3.082031 -0.84375 3.414062 -1.871094 3.746094 -2.898438 C 4.015625 -3.804688 4.410156 -4.710938 4.589844 -5.648438 L 4.800781 -6.492188 C 4.953125 -6.914062 5.105469 -7.671875 5.375 -8.003906 C 5.738281 -8.425781 6.886719 -8.515625 7.488281 -8.578125 C 8.125 -8.667969 8.757812 -8.757812 9.390625 -8.820312 C 9.996094 -8.847656 10.449219 -9.089844 10.992188 -9.179688 C 10.238281 -7.488281 9.722656 -5.675781 9 -3.988281 C 8.484375 -2.777344 8.003906 -1.570312 7.582031 -0.300781 C 7.246094 0.726562 6.824219 1.8125 6.613281 2.867188 C 6.492188 3.503906 6.765625 4.078125 7.339844 4.4375 C 8.667969 5.253906 9.03125 4.046875 9.390625 3.019531 C 10.058594 1.085938 10.84375 -0.816406 11.566406 -2.71875 C 11.898438 -3.652344 12.078125 -4.5 12.503906 -5.40625 L 13.5 -7.820312 C 13.742188 -8.367188 14.101562 -9.421875 14.617188 -9.695312 C 14.949219 -9.84375 15.128906 -9.90625 15.371094 -9.964844 C 15.824219 -10.085938 16.339844 -10.027344 16.820312 -10.148438 C 17.003906 -10.175781 17.578125 -10.269531 17.667969 -10.570312 C 17.726562 -10.84375 17.546875 -10.871094 17.363281 -10.933594 C 17.273438 -10.960938 17.214844 -10.78125 17.214844 -10.78125 C 17.09375 -10.75 16.972656 -10.8125 16.851562 -10.78125 C 16.246094 -10.722656 15.523438 -10.84375 14.917969 -10.84375 C 15.128906 -11.71875 15.613281 -12.503906 16.035156 -13.347656 L 17.484375 -16.21875 L 18.210938 -17.605469 C 18.390625 -18 18.421875 -18.363281 18.542969 -18.695312 C 18.816406 -19.296875 19.328125 -19.660156 18.933594 -20.507812 Z M 5.769531 -11.023438 C 5.316406 -9.964844 4.890625 -8.910156 4.5 -7.851562 C 4.953125 -9.210938 5.375 -10.507812 5.890625 -11.867188 C 6.402344 -13.226562 7.246094 -14.464844 7.851562 -15.765625 Z M 9.363281 1.148438 C 9.269531 1.328125 9.179688 1.480469 9.121094 1.660156 C 9.179688 1.328125 9.179688 0.996094 9.300781 0.664062 C 9.390625 0.300781 9.722656 0 9.90625 -0.332031 C 9.753906 0.179688 9.632812 0.664062 9.363281 1.148438 Z M 7.972656 -16.035156 L 7.914062 -15.886719 C 7.914062 -15.945312 7.941406 -15.976562 7.972656 -16.035156 Z M 7.972656 -16.035156 "/></g></g></g></g></svg>